<mxfile host="app.diagrams.net" modified="2022-08-19T02:52:18.193Z" agent="5.0 (Windows NT 10.0; Win64; x64) AppleWebKit/537.36 (KHTML, like Gecko) Chrome/104.0.5112.87 Whale/3.16.138.22 Safari/537.36" etag="GZSYeuOGvAVEgCFP_aim" version="20.2.5" type="github">
  <diagram id="_BZ3kFJpqRjqWwF1kyh3" name="페이지-1">
    <mxGraphModel dx="992" dy="547" grid="1" gridSize="10" guides="1" tooltips="1" connect="1" arrows="1" fold="1" page="1" pageScale="1" pageWidth="827" pageHeight="1169" math="0" shadow="0">
      <root>
        <mxCell id="0" />
        <mxCell id="1" parent="0" />
        <mxCell id="g1alMhvORCVJ9S5wz74o-3" style="edgeStyle=orthogonalEdgeStyle;rounded=0;orthogonalLoop=1;jettySize=auto;html=1;exitX=0.5;exitY=1;exitDx=0;exitDy=0;entryX=0.5;entryY=0;entryDx=0;entryDy=0;" edge="1" parent="1" source="g1alMhvORCVJ9S5wz74o-1" target="g1alMhvORCVJ9S5wz74o-2">
          <mxGeometry relative="1" as="geometry" />
        </mxCell>
        <mxCell id="g1alMhvORCVJ9S5wz74o-1" value="START" style="rounded=1;whiteSpace=wrap;html=1;" vertex="1" parent="1">
          <mxGeometry x="170" y="60" width="80" height="40" as="geometry" />
        </mxCell>
        <mxCell id="g1alMhvORCVJ9S5wz74o-8" style="edgeStyle=orthogonalEdgeStyle;rounded=0;orthogonalLoop=1;jettySize=auto;html=1;exitX=0.5;exitY=1;exitDx=0;exitDy=0;entryX=0.5;entryY=0;entryDx=0;entryDy=0;" edge="1" parent="1" source="g1alMhvORCVJ9S5wz74o-2" target="g1alMhvORCVJ9S5wz74o-7">
          <mxGeometry relative="1" as="geometry" />
        </mxCell>
        <mxCell id="g1alMhvORCVJ9S5wz74o-2" value="전년도 역량평가항목 불러오기&lt;br&gt;버튼을 누른다." style="rounded=0;whiteSpace=wrap;html=1;" vertex="1" parent="1">
          <mxGeometry x="150" y="130" width="120" height="60" as="geometry" />
        </mxCell>
        <mxCell id="g1alMhvORCVJ9S5wz74o-4" style="edgeStyle=orthogonalEdgeStyle;rounded=0;orthogonalLoop=1;jettySize=auto;html=1;exitX=0.5;exitY=1;exitDx=0;exitDy=0;entryX=0.5;entryY=0;entryDx=0;entryDy=0;" edge="1" parent="1" source="g1alMhvORCVJ9S5wz74o-5" target="g1alMhvORCVJ9S5wz74o-6">
          <mxGeometry relative="1" as="geometry" />
        </mxCell>
        <mxCell id="g1alMhvORCVJ9S5wz74o-5" value="START" style="rounded=1;whiteSpace=wrap;html=1;" vertex="1" parent="1">
          <mxGeometry x="590" y="60" width="80" height="40" as="geometry" />
        </mxCell>
        <mxCell id="g1alMhvORCVJ9S5wz74o-16" style="edgeStyle=orthogonalEdgeStyle;rounded=0;orthogonalLoop=1;jettySize=auto;html=1;exitX=0.5;exitY=1;exitDx=0;exitDy=0;entryX=0.5;entryY=0;entryDx=0;entryDy=0;" edge="1" parent="1" source="g1alMhvORCVJ9S5wz74o-6" target="g1alMhvORCVJ9S5wz74o-15">
          <mxGeometry relative="1" as="geometry" />
        </mxCell>
        <mxCell id="g1alMhvORCVJ9S5wz74o-6" value="전년도 역량평가항목 불러오기&lt;br&gt;버튼을 누른다." style="rounded=0;whiteSpace=wrap;html=1;" vertex="1" parent="1">
          <mxGeometry x="570" y="130" width="120" height="60" as="geometry" />
        </mxCell>
        <mxCell id="g1alMhvORCVJ9S5wz74o-11" value="No" style="edgeStyle=orthogonalEdgeStyle;rounded=0;orthogonalLoop=1;jettySize=auto;html=1;exitX=0.5;exitY=1;exitDx=0;exitDy=0;entryX=0.5;entryY=0;entryDx=0;entryDy=0;" edge="1" parent="1" source="g1alMhvORCVJ9S5wz74o-7" target="g1alMhvORCVJ9S5wz74o-9">
          <mxGeometry relative="1" as="geometry" />
        </mxCell>
        <mxCell id="g1alMhvORCVJ9S5wz74o-12" value="Yes" style="edgeStyle=orthogonalEdgeStyle;rounded=0;orthogonalLoop=1;jettySize=auto;html=1;exitX=0.5;exitY=1;exitDx=0;exitDy=0;entryX=0.5;entryY=0;entryDx=0;entryDy=0;" edge="1" parent="1" source="g1alMhvORCVJ9S5wz74o-7" target="g1alMhvORCVJ9S5wz74o-10">
          <mxGeometry relative="1" as="geometry" />
        </mxCell>
        <mxCell id="g1alMhvORCVJ9S5wz74o-7" value="해당 년도에 &lt;br&gt;작년도 역량평가 항목이 &lt;br&gt;반영이 된적있는가?" style="rhombus;whiteSpace=wrap;html=1;" vertex="1" parent="1">
          <mxGeometry x="117.5" y="210" width="185" height="100" as="geometry" />
        </mxCell>
        <mxCell id="g1alMhvORCVJ9S5wz74o-19" style="edgeStyle=orthogonalEdgeStyle;rounded=0;orthogonalLoop=1;jettySize=auto;html=1;exitX=0.5;exitY=1;exitDx=0;exitDy=0;" edge="1" parent="1" source="g1alMhvORCVJ9S5wz74o-9" target="g1alMhvORCVJ9S5wz74o-18">
          <mxGeometry relative="1" as="geometry" />
        </mxCell>
        <mxCell id="g1alMhvORCVJ9S5wz74o-9" value="isert한다" style="rounded=0;whiteSpace=wrap;html=1;" vertex="1" parent="1">
          <mxGeometry x="50" y="360" width="120" height="60" as="geometry" />
        </mxCell>
        <mxCell id="g1alMhvORCVJ9S5wz74o-20" style="edgeStyle=orthogonalEdgeStyle;rounded=0;orthogonalLoop=1;jettySize=auto;html=1;exitX=0.5;exitY=1;exitDx=0;exitDy=0;entryX=0.5;entryY=0;entryDx=0;entryDy=0;" edge="1" parent="1" source="g1alMhvORCVJ9S5wz74o-10" target="g1alMhvORCVJ9S5wz74o-18">
          <mxGeometry relative="1" as="geometry" />
        </mxCell>
        <mxCell id="g1alMhvORCVJ9S5wz74o-10" value="이미 작년도 역량평가 항목들로 반영이 되었습니다." style="rounded=0;whiteSpace=wrap;html=1;" vertex="1" parent="1">
          <mxGeometry x="250" y="360" width="120" height="60" as="geometry" />
        </mxCell>
        <mxCell id="g1alMhvORCVJ9S5wz74o-23" value="아니오" style="edgeStyle=orthogonalEdgeStyle;rounded=0;orthogonalLoop=1;jettySize=auto;html=1;exitX=0.5;exitY=1;exitDx=0;exitDy=0;entryX=0.5;entryY=0;entryDx=0;entryDy=0;" edge="1" parent="1" source="g1alMhvORCVJ9S5wz74o-15" target="g1alMhvORCVJ9S5wz74o-22">
          <mxGeometry relative="1" as="geometry" />
        </mxCell>
        <mxCell id="g1alMhvORCVJ9S5wz74o-25" value="네" style="edgeStyle=orthogonalEdgeStyle;rounded=0;orthogonalLoop=1;jettySize=auto;html=1;exitX=0.5;exitY=1;exitDx=0;exitDy=0;entryX=0.5;entryY=0;entryDx=0;entryDy=0;" edge="1" parent="1" source="g1alMhvORCVJ9S5wz74o-15" target="g1alMhvORCVJ9S5wz74o-24">
          <mxGeometry relative="1" as="geometry">
            <Array as="points">
              <mxPoint x="630" y="360" />
              <mxPoint x="494" y="360" />
            </Array>
          </mxGeometry>
        </mxCell>
        <mxCell id="g1alMhvORCVJ9S5wz74o-15" value="(현재 년도)의 &lt;br&gt;모든 역량 평가 항목들이&lt;br&gt;(작년도)의 역량평가 항목들로 &lt;br&gt;리셋됩니다.&lt;br&gt;정말 하시겠습니까?" style="rhombus;whiteSpace=wrap;html=1;" vertex="1" parent="1">
          <mxGeometry x="520" y="210" width="220" height="140" as="geometry" />
        </mxCell>
        <mxCell id="g1alMhvORCVJ9S5wz74o-18" value="END" style="rounded=1;whiteSpace=wrap;html=1;" vertex="1" parent="1">
          <mxGeometry x="170" y="460" width="80" height="40" as="geometry" />
        </mxCell>
        <mxCell id="g1alMhvORCVJ9S5wz74o-22" value="END" style="rounded=1;whiteSpace=wrap;html=1;" vertex="1" parent="1">
          <mxGeometry x="590" y="460" width="80" height="40" as="geometry" />
        </mxCell>
        <mxCell id="g1alMhvORCVJ9S5wz74o-26" style="edgeStyle=orthogonalEdgeStyle;rounded=0;orthogonalLoop=1;jettySize=auto;html=1;exitX=0.5;exitY=1;exitDx=0;exitDy=0;entryX=0;entryY=0.5;entryDx=0;entryDy=0;" edge="1" parent="1" source="g1alMhvORCVJ9S5wz74o-24" target="g1alMhvORCVJ9S5wz74o-22">
          <mxGeometry relative="1" as="geometry" />
        </mxCell>
        <mxCell id="g1alMhvORCVJ9S5wz74o-24" value="현재 년도의 역량 평가 항목 delete 후 &lt;br&gt;작년도의 역량평가 항목 insert" style="rounded=0;whiteSpace=wrap;html=1;" vertex="1" parent="1">
          <mxGeometry x="414" y="390" width="160" height="70" as="geometry" />
        </mxCell>
      </root>
    </mxGraphModel>
  </diagram>
</mxfile>
